# xmcd
#
# Track frame offsets: 
#        150
#        11389
#        22582
#        34483
#        44040
#        57498
#        68459
#        78779
#        90627
#        100865
#        111271
#        121337
#        131430
#        144664
#        156667
#        165312
#        176392
#        187227
#        198373
#        211185
#        221729
#        231310
#
# Disc length: 3239 seconds
#
# Revision: 2
# Processed by: cddbd v1.5.2PL0 Copyright (c) Steve Scherf et al.
# Submitted via: ExactAudioCopyFreeDBPlugin 1.0
#
DISCID=310ca516
DTITLE=Aretha Franklin - A Bit of Soul
DYEAR=1964
DGENRE=Soul
TTITLE0=Follow Your Heart
TTITLE1=Only the One You Love
TTITLE2=One Step Ahead
TTITLE3=Can't You Just See Me
TTITLE4=How to Murder Your Wife
TTITLE5=A Little Bit of Soul
TTITLE6=Cry Like a Baby
TTITLE7=Her Little Heart Went to Loveland
TTITLE8=Remember Me
TTITLE9=Land of Dreams
TTITLE10=Little Miss Raggedy Ann
TTITLE11=Deeper (bonus track)
TTITLE12=I Still Can't Forget (bonus track)
TTITLE13=Rose of Washington Square (bonus track)
TTITLE14=Take it Like You Give It (mono)
TTITLE15=Follow Your Heart (mono)
TTITLE16=Only the One You Love (mono)
TTITLE17=One Step Ahead (mono)
TTITLE18=How to Murder Your Wife (mono)
TTITLE19=A Little Bit of Soul (mono)
TTITLE20=Cry Like a Baby (mono)
TTITLE21=Her Little Heart Went to Loveland (mono)
EXTD=A Bit Of Soul\n©  2011 Columbia/Legacy\n\nRecorded, Compiled and 
EXTD=Assigned a master number (XSM 79905, 79906) but never released as
EXTD=an LP\nCD Edition Released \n"Take a Look: Complete on Columbia"
EXTD=Collection Released March 22, 2011\n\nAMG EXPERT REVIEW:  "Take 
EXTD=a Look" Aretha Franklin has simply been one of the greatest singe
EXTD=rs of the modern generation, and whether bringing her powerful, p
EXTD=assionate voice to bear on gospel standards, songs from the Great
EXTD=American Songbook, jazz standards, pop ditties, or deep Southern
EXTD=soul and R&B, she has always had the presence -- much like Ray C
EXTD=harles -- to make anything she touches unmistakably hers. Frankli
EXTD=n began her career in gospel when she was still a teenager, and h
EXTD=er amazing vocal talents, coupled with her fine piano playing, ma
EXTD=rked her as a once-in-a-lifetime kind of artist, qualities very a
EXTD=pparent to legendary talent scout John Hammond, who signed her to
EXTD=Columbia Records. The problem Hammond and Columbia immediately r
EXTD=an into, though, was how to best present that spirited voice to t
EXTD=he secular pop world. Between 1960 and 1969 (her first release fo
EXTD=r the label was actually in 1961), Columbia tried Franklin in a v
EXTD=ariety of styles and settings, and if none of them exactly caught
EXTD=fire the way her legendary later sides for Atlantic Records woul
EXTD=d, they still allowed Franklin to explore a lot of avenues, and s
EXTD=he was too good a singer not to be at least memorable in all of t
EXTD=hem. This wonderful box set includes CDs of Franklin's seven full
EXTD=length albums for the label, two CDs of her work with producers 
EXTD=Bobby Scott (in 1963) and Clyde Otis (in 1964), a CD of singles p
EXTD=roduced by Bob Johnston, plus rarities that were sweetened and re
EXTD=leased after Franklin left Columbia for Atlantic and a DVD featur
EXTD=ing Franklin performing several songs at the piano on The Steve A
EXTD=llen Show in 1964. It's a tremendous set, and it portrays an arti
EXTD=st working her own way toward how to best present herself to the 
EXTD=world. We all know she got there.  -- Steve Leggett\n\nAMG EXPERT
EXTD=REVIEW: ("A Bit Of Soul")  N/A\n
EXTT0=
EXTT1=
EXTT2=
EXTT3=
EXTT4=
EXTT5=
EXTT6=
EXTT7=
EXTT8=
EXTT9=
EXTT10=
EXTT11=
EXTT12=
EXTT13=
EXTT14=
EXTT15=
EXTT16=
EXTT17=
EXTT18=
EXTT19=
EXTT20=
EXTT21=
PLAYORDER=
